<svg width="40" height="50" viewBox="0 0 40 50" xmlns="http://www.w3.org/2000/svg">
    <g fill="silver" fill-rule="nonzero">
        <path d="M20 28.033c-4.794.006-8.925-3.357-9.868-8.033a1.66 1.66 0 0 1 .392-1.344 1.68 1.68 0 0 1 1.283-.573 1.673 1.673 0 0 1 1.676 1.384c.65 3.088 3.387 5.3 6.559 5.3 3.171 0 5.909-2.212 6.559-5.3.14-.809.85-1.396 1.675-1.384a1.68 1.68 0 0 1 1.284.573c.322.37.466.86.392 1.344-.949 4.707-5.126 8.079-9.952 8.033z"/>
        <path d="M34.911 50H5.089a5.039 5.039 0 0 1-3.646-1.552 4.985 4.985 0 0 1-1.38-3.698L1.42 16.017c.117-2.677 2.333-4.786 5.026-4.784h27.108c2.693-.002 4.91 2.107 5.026 4.784l1.357 28.733a4.985 4.985 0 0 1-1.38 3.698A5.039 5.039 0 0 1 34.91 50zM6.446 14.583c-.925 0-1.675.747-1.675 1.667L3.414 44.917c-.023.456.143.902.46 1.232.316.331.756.518 1.215.518h29.822c.46 0 .899-.187 1.215-.518.317-.33.483-.776.46-1.232L35.23 16.183c0-.92-.75-1.666-1.675-1.666l-27.108.066z"/>
        <path d="M30.052 12.917h-3.35V10c0-3.682-3-6.667-6.702-6.667-3.701 0-6.702 2.985-6.702 6.667v2.917h-3.35V10c0-5.523 4.5-10 10.052-10s10.052 4.477 10.052 10v2.917z"/>
    </g>
</svg>
