<svg width="20" height="14" viewBox="0 0 20 14" xmlns="http://www.w3.org/2000/svg">
    <g fill="#202330" fill-rule="nonzero">
        <path d="M15.105 8.844a2.524 2.524 0 0 0-2.521 2.52c0 1.391 1.13 2.522 2.521 2.522 1.39 0 2.521-1.131 2.521-2.521s-1.13-2.521-2.521-2.521zm0 3.781c-.695 0-1.26-.565-1.26-1.26 0-.695.565-1.26 1.26-1.26.695 0 1.26.565 1.26 1.26 0 .695-.565 1.26-1.26 1.26zM6.492 8.844a2.524 2.524 0 0 0-2.521 2.52c0 1.391 1.13 2.522 2.52 2.522 1.39 0 2.522-1.131 2.522-2.521S7.882 8.844 6.492 8.844zm0 3.781c-.696 0-1.26-.565-1.26-1.26 0-.695.564-1.26 1.26-1.26.695 0 1.26.565 1.26 1.26 0 .695-.565 1.26-1.26 1.26zM16.803 1.628a.63.63 0 0 0-.564-.347H12.92v1.26h2.93l1.717 3.414 1.126-.567-1.89-3.76z"/>
        <path d="M8.445 10.756h4.769v1.261H8.445zM4.6 10.756H2.417a.63.63 0 1 0 0 1.26h2.185a.63.63 0 1 0 0-1.26zM19.868 6.903l-1.24-1.597a.63.63 0 0 0-.498-.244h-4.58V.651a.63.63 0 0 0-.63-.63H2.416a.63.63 0 1 0 0 1.26h9.874v4.412c0 .348.282.63.63.63h4.902l.917 1.182v3.25h-1.743a.63.63 0 1 0 0 1.261h2.374a.63.63 0 0 0 .63-.63V7.289a.631.631 0 0 0-.132-.386zM4.559 7.562h-2.9a.63.63 0 1 0 0 1.26h2.9a.63.63 0 1 0 0-1.26zM6.008 5.083H.63a.63.63 0 1 0 0 1.26h5.378a.63.63 0 1 0 0-1.26z"/>
        <path d="M7.038 2.604H1.66a.63.63 0 1 0 0 1.26h5.378a.63.63 0 1 0 0-1.26z"/>
    </g>
</svg>
