<svg width="20" height="20" viewBox="0 0 20 20" xmlns="http://www.w3.org/2000/svg">
    <g fill="#1F83A8" fill-rule="nonzero">
        <path d="M17.607.022h-6.689c-.612 0-1.224.22-1.661.701L.732 9.271a2.36 2.36 0 0 0 0 3.332l6.689 6.707c.918.92 2.404.92 3.322 0l8.525-8.548a2.32 2.32 0 0 0 .7-1.666V2.389C19.922 1.074 18.873.022 17.606.022zm-6.689 1.271h6.689c.568 0 1.049.482 1.049 1.052v6.707a.963.963 0 0 1-.306.745l-8.525 8.548c-.393.395-1.093.395-1.486 0L1.65 11.682c-.393-.394-.393-1.096 0-1.49l8.525-8.548c.218-.263.437-.35.743-.35z"/>
        <path d="M9.956 14.75c0 .351.263.614.612.614.35 0 .612-.263.612-.613V4.099a.598.598 0 0 0-.612-.614.598.598 0 0 0-.612.614V14.75zM7.902 8.964a.69.69 0 0 1 0 .965.685.685 0 0 1-.962 0 .69.69 0 0 1 0-.965c.262-.263.656-.263.962 0zm-1.836-.876c-.744.745-.744 1.928 0 2.63.743.745 1.923.745 2.623 0 .743-.745.743-1.929 0-2.63-.7-.702-1.88-.702-2.623 0zM14.153 8.964a.69.69 0 0 1 0 .965.685.685 0 0 1-.962 0 .69.69 0 0 1 0-.965.685.685 0 0 1 .962 0zm-1.792-.876c-.744.745-.744 1.928 0 2.63.743.745 1.923.745 2.623 0 .743-.745.743-1.929 0-2.63-.7-.702-1.88-.702-2.623 0z"/>
    </g>
</svg>
